<?xml version="1.0" encoding="utf-8"?>

<!DOCTYPE svg PUBLIC "-//W3C//DTD SVG 1.1//EN" "http://www.w3.org/Graphics/SVG/1.1/DTD/svg11.dtd">
<svg version="1.1" id="Layer_1" xmlns="http://www.w3.org/2000/svg" xmlns:xlink="http://www.w3.org/1999/xlink" x="0px" y="0px"
	 viewBox="0 0 1638.099 1635.48" enable-background="new 0 0 1638.099 1635.48" xml:space="preserve">
<symbol  id="Jet" viewBox="-118.652 -36.889 237.303 73.779">
	<path d="M118.652-19.742l-4.324,0.475l-4.364,0.408c0,0-9.056,5.041-30.769,9.708c0,0-0.716,0.263-1.297,0.935l-2.73,0.726
		l-1.517-0.282c0,0-0.586-0.115-1.387,0.417c0,0-7.572,5.58-15.161,8.553S35.787,2.693,17.21-1.895c0,0-33.807-3.058-38.624-2.152
		c0,0,0.303,0.188-0.178,0.433s-2.969,1.163-2.969,1.163l-0.036-0.488l-0.489,0.018c0,0,0.061,0.591-0.287,0.616
		s-0.553-0.134-0.598-0.516l-3.57,0.245l0.046,0.627l-0.54,0.04l-0.046-0.627l-6.868,0.399l-2.137,3.08c0,0-1.687,0.631-1.561,0.202
		c0.126-0.429,0.949-3.045,0.949-3.045l-11.178,2.484l-0.343,0.813c0,0-1.239,0.056-1.741-0.345l-12.231,2.684l-25.563,23.513
		l2.192,0.049c0,0,0.421,0.249,0.089,0.501c-0.143,0.109-2.896-0.102-2.896-0.102l-8.382,7.897l-6.705,0.23l-0.84,0.954
		l-0.907,0.049l-1.228-1.223l-0.907,0.049l-0.855,1.236l-0.136-0.183l0.604-1.077l-7.766,0.08l-0.162-2.439l1.461-0.125
		l13.935-29.783l-0.696,0.023c-0.338,0.011-0.62-0.255-0.628-0.593l-0.078-3.265l0.505-0.037l-0.042-0.33l-0.383,0.028l-0.064-0.871
		l1.248,0.066l0.008-2.749c0,0,4.81-0.773,13.452,0.588l-0.08-0.852l-7.172-0.646c0,0-2.963-0.176-4.255-0.666
		c-0.498-0.189-0.999-0.373-1.509-0.527l-9.519-2.883l-0.876-0.006l-0.233-3.414l-3.018-0.093l-0.793-0.309l3.877-0.355
		c0,0-0.451-5.428,0.226-6.213l3.067-0.908l0.409-2.061l-0.373-0.305l-1.835,0.047l0.014-0.281l2.343-0.032l0.271-1.788
		c0,0,0.056-0.197-0.224-0.194c-0.28,0.003-1.948-0.067-1.948-0.067l0.019-0.211l2.292-0.011l3.165-1.003
		c0,0,10.297-0.179,11.514-0.058c1.217,0.121,3.409,1.605,3.409,1.605l8.119-0.999l0.587-0.586l0.092,0.536l2.179-0.125
		c0,0,2.667-1.351,9.103-0.949l-0.047-3.743l1.098-0.063l-0.123-2.634l16.368-3.32l5.089,8.991l57.085-1.636
		c0,0,22.504-1.55,35.236,0.649c0.3,0.052,0.533,0.287,0.583,0.587c0.137,0.815,0.375,2.515,0.327,4.232
		c-0.029,1.035,2.574,2.629,3.743,2.578c0,0-0.523,0.984-0.532,1.807c0,0,31.554-1.757,32.061-1.532l-0.081-1.097l1.776-0.13
		l0.079,1.079c0,0,18.925-1.162,28.403,1.573l4.278-0.139L118.652-19.742z"/>
</symbol>
<g>
	
		<use xlink:href="#Jet"  width="237.303" height="73.779" x="-118.652" y="-36.889" transform="matrix(0.9952 0 0 -0.9952 817.6211 58.2866)" overflow="visible"/>
	
		<use xlink:href="#Jet"  width="237.303" height="73.779" x="-118.652" y="-36.889" transform="matrix(0.9413 -0.3232 -0.3232 -0.9413 571.0988 99.9028)" overflow="visible"/>
	
		<use xlink:href="#Jet"  width="237.303" height="73.779" x="-118.652" y="-36.889" transform="matrix(0.7854 -0.6113 -0.6113 -0.7854 351.4464 219.3098)" overflow="visible"/>
	
		<use xlink:href="#Jet"  width="237.303" height="73.779" x="-118.652" y="-36.889" transform="matrix(0.5443 -0.8332 -0.8332 -0.5443 182.4669 403.568)" overflow="visible"/>
	
		<use xlink:href="#Jet"  width="237.303" height="73.779" x="-118.652" y="-36.889" transform="matrix(0.2443 -0.9648 -0.9648 -0.2443 82.4716 632.7101)" overflow="visible"/>
	
		<use xlink:href="#Jet"  width="237.303" height="73.779" x="-118.652" y="-36.889" transform="matrix(-0.0822 -0.9918 -0.9918 0.0822 62.2967 881.9052)" overflow="visible"/>
	
		<use xlink:href="#Jet"  width="237.303" height="73.779" x="-118.652" y="-36.889" transform="matrix(-0.3998 -0.9114 -0.9114 0.3998 124.1285 1124.1489)" overflow="visible"/>
	
		<use xlink:href="#Jet"  width="237.303" height="73.779" x="-118.652" y="-36.889" transform="matrix(-0.6741 -0.7322 -0.7322 0.6741 261.2664 1333.1904)" overflow="visible"/>
	
		<use xlink:href="#Jet"  width="237.303" height="73.779" x="-118.652" y="-36.889" transform="matrix(-0.8753 -0.4737 -0.4737 0.8753 458.8494 1486.377)" overflow="visible"/>
	
		<use xlink:href="#Jet"  width="237.303" height="73.779" x="-118.652" y="-36.889" transform="matrix(-0.9817 -0.1638 -0.1638 0.9817 695.4665 1567.1082)" overflow="visible"/>
	
		<use xlink:href="#Jet"  width="237.303" height="73.779" x="-118.652" y="-36.889" transform="matrix(-0.9817 0.1638 0.1638 0.9817 945.4764 1566.6359)" overflow="visible"/>
	
		<use xlink:href="#Jet"  width="237.303" height="73.779" x="-118.652" y="-36.889" transform="matrix(-0.8753 0.4737 0.4737 0.8753 1181.7866 1485.011)" overflow="visible"/>
	
		<use xlink:href="#Jet"  width="237.303" height="73.779" x="-118.652" y="-36.889" transform="matrix(-0.6741 0.7322 0.7322 0.6741 1378.7894 1331.079)" overflow="visible"/>
	
		<use xlink:href="#Jet"  width="237.303" height="73.779" x="-118.652" y="-36.889" transform="matrix(-0.3998 0.9114 0.9114 0.3998 1515.1365 1121.5206)" overflow="visible"/>
	
		<use xlink:href="#Jet"  width="237.303" height="73.779" x="-118.652" y="-36.889" transform="matrix(-0.0822 0.9918 0.9918 0.0822 1576.0524 879.045)" overflow="visible"/>
	
		<use xlink:href="#Jet"  width="237.303" height="73.779" x="-118.652" y="-36.889" transform="matrix(0.2443 0.9648 0.9648 -0.2443 1554.9359 629.9281)" overflow="visible"/>
	
		<use xlink:href="#Jet"  width="237.303" height="73.779" x="-118.652" y="-36.889" transform="matrix(0.5443 0.8332 0.8332 -0.5443 1454.0756 401.1654)" overflow="visible"/>
	
		<use xlink:href="#Jet"  width="237.303" height="73.779" x="-118.652" y="-36.889" transform="matrix(0.7854 0.6113 0.6113 -0.7854 1284.4009 217.5471)" overflow="visible"/>
	
		<use xlink:href="#Jet"  width="237.303" height="73.779" x="-118.652" y="-36.889" transform="matrix(0.9413 0.3232 0.3232 -0.9413 1064.299 98.971)" overflow="visible"/>
</g>
</svg>
